<svg fill="none" height="26" viewBox="0 0 26 26" width="26" xmlns="http://www.w3.org/2000/svg">
    <path
        d="M8.12571 25C8.78712 25 9.32331 24.4614 9.32331 23.797C9.32331 23.1326 8.78712 22.594 8.12571 22.594C7.46429 22.594 6.9281 23.1326 6.9281 23.797C6.9281 24.4614 7.46429 25 8.12571 25Z"
        stroke="#004182" stroke-linecap="round" stroke-linejoin="round" stroke-width="2" />
    <path
        d="M21.2993 25C21.9607 25 22.4969 24.4614 22.4969 23.797C22.4969 23.1326 21.9607 22.594 21.2993 22.594C20.6379 22.594 20.1017 23.1326 20.1017 23.797C20.1017 24.4614 20.6379 25 21.2993 25Z"
        stroke="#004182" stroke-linecap="round" stroke-linejoin="round" stroke-width="2" />
    <path
        d="M1 1H3.39521L6.58084 15.9414C6.6977 16.4886 7.0008 16.9777 7.43798 17.3246C7.87515 17.6716 8.41905 17.8546 8.97605 17.8421H20.6886C21.2337 17.8412 21.7623 17.6536 22.1869 17.3102C22.6115 16.9668 22.9068 16.4882 23.024 15.9534L25 7.01504H4.67665"
        stroke="#004182" stroke-linecap="round" stroke-linejoin="round" stroke-width="2" />
</svg>
