<svg width="24" height="24" viewBox="0 0 24 24" fill="none" xmlns="http://www.w3.org/2000/svg">
<path d="M19.6801 8.85834L19.2811 19.5833C19.2471 20.5018 18.8113 21.3724 18.0663 22.0103C17.3212 22.6482 16.3255 23.0032 15.2905 23H7.70848C6.67415 23.0033 5.67904 22.6488 4.9341 22.0116C4.18915 21.3744 3.75294 20.5047 3.71793 19.5868L3.31888 8.85834C3.31014 8.6234 3.40688 8.395 3.5878 8.22339C3.76872 8.05178 4.019 7.95102 4.28359 7.94326C4.54818 7.93551 4.8054 8.02141 4.99867 8.18205C5.19194 8.3427 5.30542 8.56494 5.31415 8.79988L5.71321 19.5275C5.73308 19.9854 5.95203 20.4187 6.32409 20.7364C6.69614 21.054 7.19234 21.2313 7.70848 21.2309H15.2905C15.8073 21.2313 16.3041 21.0535 16.6763 20.7351C17.0484 20.4167 17.2669 19.9825 17.2858 19.5239L17.6849 8.79988C17.6936 8.56494 17.8071 8.3427 18.0003 8.18205C18.1936 8.02141 18.4508 7.93551 18.7154 7.94326C18.98 7.95102 19.2303 8.05178 19.4112 8.22339C19.5921 8.395 19.6889 8.6234 19.6801 8.85834ZM21 5.28927C21 5.52421 20.8949 5.74953 20.7078 5.91566C20.5207 6.08179 20.267 6.17512 20.0024 6.17512H2.99764C2.73305 6.17512 2.47929 6.08179 2.2922 5.91566C2.10511 5.74953 2 5.52421 2 5.28927C2 5.05433 2.10511 4.82901 2.2922 4.66288C2.47929 4.49676 2.73305 4.40343 2.99764 4.40343H6.09031C6.40641 4.40418 6.71152 4.30048 6.94626 4.11251C7.18101 3.92454 7.3286 3.66574 7.3603 3.38648C7.43392 2.73138 7.77957 2.12409 8.3299 1.68291C8.88023 1.24174 9.59583 0.998296 10.3373 1.00001H12.6617C13.4032 0.998296 14.1188 1.24174 14.6691 1.68291C15.2194 2.12409 15.5651 2.73138 15.6387 3.38648C15.6704 3.66574 15.818 3.92454 16.0527 4.11251C16.2875 4.30048 16.5926 4.40418 16.9087 4.40343H20.0014C20.266 4.40343 20.5197 4.49676 20.7068 4.66288C20.8939 4.82901 20.999 5.05433 20.999 5.28927H21ZM9.0922 4.40343H13.9088C13.7777 4.13744 13.692 3.85561 13.6544 3.56719C13.6297 3.34883 13.5146 3.1464 13.3314 2.99911C13.1482 2.85181 12.9099 2.77014 12.6627 2.76993H10.3383C10.0911 2.77014 9.85284 2.85181 9.66964 2.99911C9.48643 3.1464 9.37131 3.34883 9.3466 3.56719C9.30872 3.85565 9.22364 4.13749 9.0922 4.40343ZM10.0968 17.8249V10.2819C10.0968 10.047 9.99171 9.82164 9.80462 9.65551C9.61753 9.48938 9.36378 9.39605 9.09919 9.39605C8.8346 9.39605 8.58084 9.48938 8.39375 9.65551C8.20666 9.82164 8.10155 10.047 8.10155 10.2819V17.8284C8.10155 18.0634 8.20666 18.2887 8.39375 18.4548C8.58084 18.6209 8.8346 18.7143 9.09919 18.7143C9.36378 18.7143 9.61753 18.6209 9.80462 18.4548C9.99171 18.2887 10.0968 18.0634 10.0968 17.8284V17.8249ZM14.8994 17.8249V10.2819C14.8994 10.047 14.7943 9.82164 14.6072 9.65551C14.4202 9.48938 14.1664 9.39605 13.9018 9.39605C13.6372 9.39605 13.3835 9.48938 13.1964 9.65551C13.0093 9.82164 12.9042 10.047 12.9042 10.2819V17.8284C12.9042 18.0634 13.0093 18.2887 13.1964 18.4548C13.3835 18.6209 13.6372 18.7143 13.9018 18.7143C14.1664 18.7143 14.4202 18.6209 14.6072 18.4548C14.7943 18.2887 14.8994 18.0634 14.8994 17.8284V17.8249Z" fill="#06004F"/>
</svg>
