<svg fill="none" height="24" viewBox="0 0 24 24" width="24" xmlns="http://www.w3.org/2000/svg">
    <path clip-rule="evenodd" d="M12 0C9.01626 0 6.59744 2.47965 6.59744 5.53846C6.59744 8.59726 9.01626 11.0769 12 11.0769C14.9838 11.0769 17.4026 8.59726 17.4026 5.53846C17.4026 2.47965 14.9838 0 12 0ZM8.3983 5.53846C8.3983 3.49926 10.0109 1.84615 12 1.84615C13.9891 1.84615 15.6017 3.49926 15.6017 5.53846C15.6017 7.57763 13.9891 9.23077 12 9.23077C10.0109 9.23077 8.3983 7.57763 8.3983 5.53846ZM12 12C7.8548 12 5.29203 13.3218 3.79193 15.215C2.32113 17.071 2.00441 19.3131 2.00001 20.9051C1.99473 22.8179 3.61667 24 5.23967 24H18.7603C20.3834 24 22.0053 22.8179 22 20.9051C21.9956 19.3131 21.6789 17.071 20.2081 15.215C18.708 13.3218 16.1452 12 12 12ZM3.80086 20.9103C3.8047 19.5198 4.08777 17.7696 5.18971 16.379C6.26234 15.0254 8.24522 13.8462 12 13.8462C15.7548 13.8462 17.7377 15.0254 18.8103 16.379C19.9123 17.7696 20.1953 19.5198 20.1991 20.9103C20.2009 21.5614 19.6383 22.1538 18.7603 22.1538H5.23967C4.36175 22.1538 3.79906 21.5614 3.80086 20.9103Z"
        fill="white"
        fill-rule="evenodd" />
</svg>
