<svg fill="none" height="15" viewBox="0 0 15 15" width="15" xmlns="http://www.w3.org/2000/svg">
    <path
        d="M8.00647 0.328774L9.68906 4.34803C9.81782 4.65569 10.0966 4.86648 10.4166 4.89659L14.5156 5.28149C14.9793 5.35219 15.1644 5.94788 14.8281 6.29089L11.7404 9.00749C11.4904 9.22744 11.3767 9.57306 11.4454 9.90691L12.343 14.3071C12.4217 14.7902 11.9379 15.1594 11.5229 14.9303L7.94522 12.7361C7.67021 12.5672 7.33019 12.5672 7.05517 12.7361L3.47748 14.929C3.06371 15.1568 2.57869 14.7889 2.65744 14.3058L3.55499 9.9056C3.62249 9.57176 3.50998 9.22613 3.25997 9.00618L0.171057 6.2922C-0.163961 5.9505 0.0210492 5.3535 0.483574 5.2828L4.58254 4.8979C4.90256 4.86778 5.18132 4.657 5.31008 4.34934L6.99267 0.330083C7.20143 -0.109809 7.79896 -0.109809 8.00647 0.328774Z"
        fill="#FDD835" />
    <path
        d="M7.88406 4.58892L7.59904 1.6275C7.58779 1.46254 7.55529 1.17975 7.8078 1.17975C8.00781 1.17975 8.11657 1.61571 8.11657 1.61571L8.97162 3.99323C9.29413 4.89789 9.16163 5.20817 8.85036 5.39146C8.49284 5.60093 7.96531 5.43728 7.88406 4.58892Z"
        fill="#FFFF8D" />
    <path
        d="M11.4103 8.74434L13.863 6.73995C13.9842 6.6339 14.203 6.46502 14.028 6.27256C13.8892 6.1207 13.5142 6.33933 13.5142 6.33933L11.3678 7.21781C10.7278 7.44954 10.3028 7.79255 10.2653 8.22459C10.2165 8.80064 10.7103 9.24446 11.4103 8.74434Z"
        fill="#F4B400" />
</svg>
